Coordinates
version=1
nRows=41
nColumns=38
inDegrees=no

Units are S.I. units (second, meters, Newtons, ...)
If the header above contains a line with 'inDegrees', this indicates whether rotational values are in degrees (yes) or radians (no).

endheader
time	pelvis_tilt	pelvis_list	pelvis_rotation	pelvis_tx	pelvis_ty	pelvis_tz	hip_flexion_r	hip_adduction_r	hip_rotation_r	knee_angle_r	ankle_angle_r	subtalar_angle_r	mtp_angle_r	hip_flexion_l	hip_adduction_l	hip_rotation_l	knee_angle_l	ankle_angle_l	subtalar_angle_l	mtp_angle_l	lumbar_extension	lumbar_bending	lumbar_rotation	arm_flex_r	arm_add_r	arm_rot_r	elbow_flex_r	pro_sup_r	wrist_flex_r	wrist_dev_r	arm_flex_l	arm_add_l	arm_rot_l	elbow_flex_l	pro_sup_l	wrist_flex_l	wrist_dev_l
0.68	-2.75962	1.45082	-2.05717	0.760358	-0.393717	0.946754	0.314283	-0.15068	0.0210366	1.33257	-0.698132	0	0	0.0655483	0.103014	-0.486409	0.311106	0.112447	0	0	-0.227728	-0.0586787	0.148136	0.0433682	-0.292481	0.803346	0.363111	0.802604	0	0	0.0778127	-0.156994	0.0222824	0.254935	1.5708	0	0
0.69	-2.77358	1.43354	-2.0424	0.760463	-0.386304	0.950047	0.319609	-0.152823	0.0328603	1.33227	-0.698132	0	0	-0.0163612	0.130907	-0.357885	0.142571	0.0227662	0	0	-0.248621	-0.0666433	0.145377	0.0524029	-0.287445	0.811236	0.357305	0.795319	0	0	0.0871387	-0.156865	0.0162771	0.250254	1.5708	0	0
0.7	-2.80252	1.43302	-2.00737	0.759737	-0.379193	0.950983	0.339462	-0.146369	0.0366565	1.33095	-0.698132	0	0	-0.0308423	0.129471	-0.351766	0.13609	0.026468	0	0	-0.25397	-0.0621233	0.139954	0.059181	-0.285598	0.818081	0.353454	0.791757	0	0	0.0940981	-0.156094	0.0171891	0.247135	1.5708	0	0
0.71	-2.84094	1.43954	-1.96026	0.758847	-0.371467	0.950438	0.357128	-0.134513	0.037886	1.30706	-0.698132	0	0	-0.02683	0.122511	-0.385438	0.158902	0.0728389	0	0	-0.250084	-0.0527706	0.133189	0.0629248	-0.28493	0.825731	0.350813	0.788382	0	0	0.0955995	-0.157577	0.0275665	0.250211	1.5708	0	0
0.72	-2.89114	1.43882	-1.90521	0.757964	-0.364773	0.951522	0.379114	-0.128786	0.0366906	1.31508	-0.698132	0	0	-0.0428549	0.118807	-0.372503	0.146751	0.0737074	0	0	-0.257264	-0.045292	0.129406	0.070701	-0.285713	0.828727	0.348742	0.788648	0	0	0.100927	-0.157824	0.0381407	0.253945	1.5708	0	0
0.73	-2.92507	1.43823	-1.86458	0.757204	-0.357711	0.952232	0.393238	-0.123623	0.0352755	1.2989	-0.698132	0	0	-0.0539336	0.115442	-0.366941	0.14626	0.0792153	0	0	-0.262084	-0.0401223	0.124186	0.0768897	-0.284403	0.828581	0.344739	0.792245	0	0	0.10226	-0.16237	0.064022	0.265832	1.5708	0	0
0.74	-2.96017	1.43826	-1.8232	0.756462	-0.350701	0.952905	0.406372	-0.118176	0.033291	1.27814	-0.698132	0	0	-0.0632726	0.111084	-0.361984	0.147856	0.085259	0	0	-0.266443	-0.033828	0.117136	0.0851314	-0.288338	0.856136	0.348216	0.759488	0	0	0.115887	-0.156757	0.0218895	0.245027	1.5708	0	0
0.75	-2.81741	1.43648	-1.95091	0.75365	-0.340848	0.951451	0.410871	-0.160696	0.0375215	1.25385	-0.239786	0	0	-0.0778071	0.138004	-0.337281	0.13139	0.0842857	0	0	-0.25654	-0.0487138	0.0986272	0.0807101	-0.287941	0.849741	0.350531	0.772587	0	0	0.108078	-0.162473	0.0329269	0.255894	1.5708	0	0
0.76	-2.85181	1.4373	-1.91008	0.752791	-0.33374	0.952001	0.42036	-0.157872	0.0291867	1.22459	-0.215305	0	0	-0.0882999	0.133908	-0.329406	0.129414	0.0895367	0	0	-0.259854	-0.0420871	0.0925303	0.0850585	-0.29112	0.85275	0.354622	0.767302	0	0	0.112383	-0.163132	0.0350149	0.256978	1.5708	0	0
0.77	-2.88674	1.43871	-1.86983	0.751989	-0.326628	0.95243	0.429051	-0.155476	0.0196206	1.19035	-0.208824	0	0	-0.0977915	0.129492	-0.323688	0.128098	0.0954785	0	0	-0.262088	-0.0352795	0.0877377	0.0888982	-0.294028	0.852861	0.357798	0.764731	0	0	0.116275	-0.163346	0.0378599	0.258501	1.5708	0	0
0.78	-2.9225	1.43986	-1.8303	0.751379	-0.319363	0.952822	0.435892	-0.152723	0.009465	1.15278	-0.206815	0	0	-0.107969	0.125346	-0.318325	0.125794	0.100382	0	0	-0.263815	-0.0287573	0.0843542	0.0921346	-0.296554	0.850886	0.360569	0.764907	0	0	0.119035	-0.163353	0.0402159	0.260853	1.5708	0	0
0.79	-2.95892	1.44032	-1.79073	0.750827	-0.311965	0.953212	0.440545	-0.1506	-0.00381511	1.11154	-0.212373	0	0	-0.119207	0.121585	-0.31244	0.122635	0.104406	0	0	-0.265724	-0.0222557	0.0813082	0.0950149	-0.298949	0.847078	0.363426	0.767536	0	0	0.120942	-0.162865	0.0419856	0.26364	1.5708	0	0
0.8	-2.99827	1.43988	-1.74789	0.750237	-0.304528	0.953634	0.441048	-0.148668	-0.0185453	1.06493	-0.210657	0	0	-0.131431	0.117534	-0.306376	0.119213	0.10831	0	0	-0.26856	-0.0152455	0.0780297	0.0980627	-0.301142	0.842875	0.365581	0.772148	0	0	0.122592	-0.161878	0.0435398	0.266883	1.5708	0	0
0.81	-3.03617	1.43971	-1.70706	0.749769	-0.297143	0.953933	0.439966	-0.146672	-0.0348876	1.01576	-0.200625	0	0	-0.142448	0.113026	-0.302433	0.116966	0.113088	0	0	-0.271141	-0.00863537	0.075949	0.101242	-0.30271	0.84006	0.366081	0.776942	0	0	0.124658	-0.160529	0.0453938	0.270022	1.5708	0	0
0.82	-3.07333	1.43861	-1.66669	0.749342	-0.289873	0.95423	0.435472	-0.144894	-0.0540458	0.962929	-0.1892	0	0	-0.153889	0.10837	-0.29758	0.11509	0.117224	0	0	-0.275017	-0.00251576	0.0743433	0.104318	-0.301261	0.822583	0.362099	0.802605	0	0	0.120653	-0.164084	0.075785	0.290504	1.5708	0	0
0.83	-3.11144	1.43742	-1.62562	0.748871	-0.28256	0.954496	0.429038	-0.143735	-0.0777667	0.905596	-0.1926	0	0	-0.164598	0.103346	-0.293823	0.114588	0.121026	0	0	-0.278637	0.00448006	0.0716799	0.109483	-0.303006	0.82582	0.361903	0.799886	0	0	0.1262	-0.159135	0.0606311	0.284552	1.5708	0	0
0.84	3.13049	1.43619	-1.58389	0.748798	-0.274993	0.954672	0.420076	-0.139324	-0.100929	0.843417	-0.194791	0	0	-0.175425	0.0976777	-0.293509	0.114348	0.125158	0	0	-0.281651	0.0112125	0.0719648	0.114155	-0.304385	0.82913	0.360794	0.799521	0	0	0.129818	-0.155438	0.0530085	0.282433	1.5708	0	0
0.85	3.09786	1.43456	-1.54994	0.748626	-0.267325	0.954709	0.409141	-0.136946	-0.130198	0.779078	-0.201729	0	0	-0.186603	0.0930016	-0.292924	0.113738	0.129968	0	0	-0.284841	0.0169602	0.0717816	0.118516	-0.30554	0.832138	0.359184	0.798938	0	0	0.132987	-0.152498	0.0494485	0.282057	1.5708	0	0
0.86	3.07068	1.43199	-1.52017	0.748327	-0.259539	0.954662	0.395035	-0.136507	-0.169002	0.712737	-0.206874	0	0	-0.199311	0.0889733	-0.290409	0.111962	0.134525	0	0	-0.288722	0.0222696	0.0704006	0.122643	-0.30651	0.835224	0.357312	0.797916	0	0	0.135966	-0.15004	0.0473091	0.281805	1.5708	0	0
0.87	3.04917	1.42929	-1.49602	0.748161	-0.251597	0.954471	0.379934	-0.136636	-0.215905	0.646306	-0.2119	0	0	-0.212027	0.085359	-0.287761	0.111096	0.138292	0	0	-0.292402	0.02659	0.0689003	0.126282	-0.307324	0.838521	0.355814	0.795918	0	0	0.138761	-0.14829	0.0463746	0.281004	1.5708	0	0
0.88	3.03032	1.4265	-1.47508	0.748248	-0.243506	0.954128	0.364855	-0.13617	-0.270727	0.581324	-0.217976	0	0	-0.224941	0.0816754	-0.286275	0.110497	0.143429	0	0	-0.296081	0.0300649	0.0681311	0.129729	-0.307972	0.843404	0.354125	0.793021	0	0	0.141147	-0.14736	0.0464097	0.280599	1.5708	0	0
0.89	3.01049	1.4239	-1.45417	0.748677	-0.235276	0.953647	0.350769	-0.133288	-0.330568	0.518924	-0.22287	0	0	-0.237756	0.0773977	-0.286893	0.109957	0.150133	0	0	-0.299198	0.0331526	0.0683895	0.132887	-0.308779	0.850997	0.352673	0.789769	0	0	0.143065	-0.147175	0.0468141	0.280382	1.5708	0	0
0.9	2.9897	1.42304	-1.43378	0.749512	-0.227069	0.952863	0.340591	-0.126826	-0.388618	0.461122	-0.221448	0	0	-0.248388	0.0728792	-0.289418	0.109668	0.157989	0	0	-0.30052	0.035511	0.070052	0.13585	-0.309541	0.85931	0.351637	0.785202	0	0	0.144372	-0.147969	0.0487559	0.281331	1.5708	0	0
0.91	2.97247	1.42438	-1.41974	0.750886	-0.218963	0.95169	0.334782	-0.11573	-0.435018	0.406715	-0.206262	0	0	-0.256425	0.0692314	-0.294634	0.109639	0.166195	0	0	-0.299936	0.0356381	0.0745106	0.138554	-0.309081	0.864049	0.34921	0.785589	0	0	0.138353	-0.155336	0.0827116	0.301498	1.5708	0	0
0.92	2.96002	1.43039	-1.41538	0.752958	-0.211117	0.949983	0.332937	-0.0946613	-0.437948	0.346591	-0.162009	0	0	-0.257884	0.0672211	-0.305781	0.113449	0.175188	0	0	-0.294952	0.0332106	0.0815243	0.144212	-0.3138	0.908347	0.354789	0.729794	0	0	0.143009	-0.153966	0.0637608	0.292521	1.5708	0	0
0.93	2.94548	1.4358	-1.40921	0.755143	-0.203208	0.948344	0.32778	-0.0704939	-0.42525	0.282893	-0.127668	0	0	-0.259604	0.0647379	-0.317392	0.118981	0.183369	0	0	-0.290708	0.0308005	0.0897909	0.147094	-0.313457	0.91579	0.353612	0.725669	0	0	0.143551	-0.156511	0.0688431	0.295146	1.5708	0	0
0.94	2.84731	1.43513	-1.32386	0.757456	-0.196671	0.948126	0.30978	-0.0302115	-0.406807	0.200042	-0.127753	0	0	-0.262504	0.0499942	-0.334573	0.127173	0.191405	0	0	-0.295562	0.0412143	0.104861	0.154963	-0.316277	0.921891	0.352003	0.724045	0	0	0.148662	-0.154563	0.0735107	0.296005	1.5708	0	0
0.95	2.89711	1.44303	-1.37621	0.759262	-0.186752	0.945398	0.304942	-0.020256	-0.366479	0.150403	-0.116959	0	0	-0.268507	0.0574	-0.337862	0.126907	0.199617	0	0	-0.284681	0.0304313	0.105025	0.151815	-0.312569	0.92608	0.349893	0.724706	0	0	0.143673	-0.159917	0.0773702	0.298592	1.5708	0	0
0.96	2.80513	1.44122	-1.295	0.760979	-0.17963	0.945177	0.285606	0.0120237	-0.346893	0.0814368	-0.146454	0	0	-0.274029	0.0447718	-0.351186	0.132822	0.206916	0	0	-0.289337	0.0414121	0.117189	0.158381	-0.315963	0.929926	0.348708	0.726972	0	0	0.146641	-0.156806	0.0795266	0.299657	1.5708	0	0
0.97	2.79691	1.44467	-1.29184	0.762453	-0.170703	0.943563	0.278863	0.0245025	-0.326089	0.0456427	-0.148796	0	0	-0.28037	0.0444115	-0.35633	0.135246	0.213148	0	0	-0.284836	0.0406055	0.120463	0.158867	-0.315403	0.931442	0.347268	0.730176	0	0	0.143212	-0.158247	0.0828723	0.302989	1.5708	0	0
0.98	2.79239	1.44768	-1.2909	0.76365	-0.161525	0.941941	0.276462	0.0325825	-0.315798	0.028072	-0.144602	0	0	-0.287569	0.0445061	-0.359817	0.137007	0.219273	0	0	-0.280459	0.0402556	0.122145	0.158626	-0.31479	0.93099	0.345698	0.734035	0	0	0.139181	-0.159364	0.0872634	0.306076	1.5708	0	0
0.99	2.78671	1.44944	-1.28769	0.764597	-0.152105	0.940492	0.275217	0.0386053	-0.311258	0.0229846	-0.135824	0	0	-0.295989	0.0440562	-0.362046	0.139425	0.224438	0	0	-0.27688	0.0414996	0.121855	0.159778	-0.317963	0.953698	0.349222	0.703648	0	0	0.13887	-0.155584	0.0677496	0.29658	1.5708	0	0
1	2.78993	1.44748	-1.29124	0.765428	-0.142506	0.939353	0.262012	0.0453617	-0.282792	0.0102157	-0.124518	0	0	-0.308885	0.0430991	-0.362309	0.141156	0.228678	0	0	-0.276672	0.0406851	0.126497	0.149755	-0.30417	0.851347	0.329254	0.843697	0	0	0.107545	-0.196259	0.306402	0.386524	1.2905	0	0
1.01	2.77957	1.44719	-1.28033	0.765901	-0.132659	0.938303	0.26409	0.047771	-0.292999	0.0289404	-0.117508	0	0	-0.319223	0.0409598	-0.361931	0.143898	0.231126	0	0	-0.274789	0.0447213	0.122748	0.150095	-0.306865	0.86515	0.331692	0.829006	0	0	0.10509	-0.188844	0.272283	0.376231	1.33695	0	0
1.02	2.76906	1.44611	-1.26757	0.76616	-0.122582	0.937414	0.266794	0.0482556	-0.308523	0.0553689	-0.115177	0	0	-0.330511	0.038187	-0.35994	0.146306	0.23294	0	0	-0.273479	0.0497248	0.116958	0.150335	-0.309539	0.877631	0.334139	0.816363	0	0	0.101963	-0.181844	0.239642	0.367023	1.379	0	0
1.03	2.75796	1.44456	-1.25251	0.766305	-0.112319	0.936666	0.270111	0.0470122	-0.32998	0.0863281	-0.12038	0	0	-0.342212	0.0345952	-0.356476	0.14846	0.234566	0	0	-0.272386	0.055371	0.109231	0.150324	-0.311995	0.888493	0.336699	0.805762	0	0	0.0982728	-0.175452	0.20763	0.358906	1.41695	0	0
1.04	2.7441	1.44328	-1.23327	0.766429	-0.10184	0.93595	0.273319	0.0450171	-0.353033	0.116589	-0.125115	0	0	-0.353126	0.0298497	-0.352833	0.151342	0.235829	0	0	-0.270428	0.0616407	0.0997362	0.149928	-0.314197	0.898343	0.33934	0.797281	0	0	0.0935354	-0.169957	0.17632	0.352376	1.45195	0	0
1.05	2.79995	1.4486	-1.27839	0.766533	-0.0896974	0.93394	0.284527	0.0300129	-0.35841	0.158938	-0.10311	0	0	-0.362811	0.034141	-0.342404	0.152479	0.235929	0	0	-0.259048	0.0570276	0.0823375	0.144407	-0.312507	0.907989	0.340966	0.790219	0	0	0.0822966	-0.169766	0.146934	0.350563	1.4853	0	0
1.06	2.77719	1.45001	-1.24944	0.76685	-0.0789586	0.933161	0.285024	0.031132	-0.36303	0.173377	-0.104545	0	0	-0.369213	0.0277999	-0.338694	0.158933	0.234741	0	0	-0.253697	0.0633818	0.071433	0.143597	-0.314217	0.918527	0.343326	0.78258	0	0	0.0756018	-0.165358	0.113548	0.346809	1.52302	0	0
1.07	2.73167	1.44971	-1.19744	0.767244	-0.0681235	0.932687	0.282852	0.0350818	-0.371522	0.18105	-0.14333	0	0	-0.374872	0.017231	-0.338085	0.168023	0.233943	0	0	-0.24932	0.0733004	0.0602296	0.143492	-0.317066	0.934081	0.346957	0.769109	0	0	0.0728934	-0.156371	0.0533244	0.332681	1.5708	0	0
1.08	2.61415	1.4413	-1.07775	0.767912	-0.0585359	0.933617	0.273402	0.0513485	-0.403857	0.176385	-0.209868	0	0	-0.379791	-0.00553512	-0.34726	0.182884	0.23361	0	0	-0.253086	0.0952611	0.0574762	0.146262	-0.321773	0.93967	0.349309	0.762701	0	0	0.0739521	-0.147638	0.0252732	0.32144	1.5708	0	0
